<svg xmlns="http://www.w3.org/2000/svg" xmlns:xlink="http://www.w3.org/1999/xlink" id="Layer_1" version="1.1" viewBox="0 0 2113 599"><defs><clipPath id="clippath"><rect width="2113" height="599" fill="none"/></clipPath></defs><g clip-path="url(#clippath)"><g><path fill="none" d="M2084-13H25C10.1-13-2-.9-2,14v545c0,14.9,12.1,27,27,27h2059c14.9,0,27-12.1,27-27V14c0-14.9-12.1-27-27-27Z"/><path fill="#e7ecf8" d="M805,214.2v-97.3c0-2.1-2.6-3.8-5.8-3.8h-334.4c-3.2,0-5.8,1.7-5.8,3.8v97.3c0,2.1,2.6,3.8,5.8,3.8h334.4c3.2,0,5.8-1.7,5.8-3.8Z"/><path fill="#e7ecf8" d="M805,552.2v-97.3c0-2.1-2.6-3.8-5.8-3.8h-334.4c-3.2,0-5.8,1.7-5.8,3.8v97.3c0,2.1,2.6,3.8,5.8,3.8h334.4c3.2,0,5.8-1.7,5.8-3.8Z"/><path fill="#e7ecf8" d="M1962,272.2v-97.3c0-2.1-2.6-3.8-5.8-3.8h-334.4c-3.2,0-5.8,1.7-5.8,3.8v97.3c0,2.1,2.6,3.8,5.8,3.8h334.4c3.2,0,5.8-1.7,5.8-3.8Z"/><path fill="#edf2df" d="M1962,152.2V54.8c0-2.1-2.6-3.8-5.8-3.8h-334.4c-3.2,0-5.8,1.7-5.8,3.8v97.3c0,2.1,2.6,3.8,5.8,3.8h334.4c3.2,0,5.8-1.7,5.8-3.8Z"/><path fill="#e7ecf8" d="M1383,214.2v-97.3c0-2.1-2.6-3.8-5.8-3.8h-334.4c-3.2,0-5.8,1.7-5.8,3.8v97.3c0,2.1,2.6,3.8,5.8,3.8h334.4c3.2,0,5.8-1.7,5.8-3.8Z"/><path fill="#e7ecf8" d="M1383,482.2v-97.3c0-2.1-2.6-3.8-5.8-3.8h-334.4c-3.2,0-5.8,1.7-5.8,3.8v97.3c0,2.1,2.6,3.8,5.8,3.8h334.4c3.2,0,5.8-1.7,5.8-3.8Z"/><path fill="#e7ecf8" d="M1962,482.2v-97.3c0-2.1-2.6-3.8-5.8-3.8h-334.4c-3.2,0-5.8,1.7-5.8,3.8v97.3c0,2.1,2.6,3.8,5.8,3.8h334.4c3.2,0,5.8-1.7,5.8-3.8Z"/><g><path fill="#92a9ef" d="M470,133.8c0-5.4,3.6-9.8,8.1-9.8h57v80h-56.2c-4.9,0-9-4.8-9-10.7v-59.5Z"/><path fill="none" stroke="#fff" stroke-linecap="round" stroke-linejoin="round" stroke-width="3" d="M488,170.4l18,5.1v5.9l-18-5.1v-5.8Z"/><path fill="none" stroke="#fff" stroke-linecap="round" stroke-linejoin="round" stroke-width="3" d="M506,175.7l18-5.1v5.9l-18,5.1v-5.8Z"/><path fill="none" stroke="#fff" stroke-linecap="round" stroke-linejoin="round" stroke-width="3" d="M488,170l13.5-3.8M510.5,166.2l13.5,3.8"/><path fill="none" stroke="#fff" stroke-linecap="round" stroke-linejoin="round" stroke-width="3" d="M510.5,146v13.5"/><path fill="none" stroke="#fff" stroke-linecap="round" stroke-linejoin="round" stroke-width="3" d="M501.5,146v13.5"/><path fill="none" stroke="#fff" stroke-linecap="round" stroke-linejoin="round" stroke-width="3" d="M510.5,159.5l4.5,1.5"/><path fill="none" stroke="#fff" stroke-linecap="round" stroke-linejoin="round" stroke-width="3" d="M497,161l4.5-1.5"/><path fill="none" stroke="#fff" stroke-linecap="round" stroke-linejoin="round" stroke-width="3" d="M506,170l9-9"/><path fill="none" stroke="#fff" stroke-linecap="round" stroke-linejoin="round" stroke-width="3" d="M506,170l-9-9"/><path fill="#fff" d="M535.1,124h250.7c4.5,0,8.1,4.4,8.1,9.8v60.5c0,5.4-3.6,9.8-8.1,9.8h-250.7v-80Z"/></g><g><path fill="#92a9ef" d="M470,471.8c0-5.4,3.6-9.8,8.1-9.8h57v80h-56.2c-4.9,0-9-4.8-9-10.7v-59.5Z"/><path fill="none" stroke="#fff" stroke-linecap="round" stroke-linejoin="round" stroke-width="3" d="M488,508.4l18,5.1v5.8l-18-5.1v-5.9Z"/><path fill="none" stroke="#fff" stroke-linecap="round" stroke-linejoin="round" stroke-width="3" d="M506,513.7l18-5.1v5.8l-18,5.1v-5.9Z"/><path fill="none" stroke="#fff" stroke-linecap="round" stroke-linejoin="round" stroke-width="3" d="M488,508l13.5-3.8M510.5,504.2l13.5,3.8"/><path fill="none" stroke="#fff" stroke-linecap="round" stroke-linejoin="round" stroke-width="3" d="M510.5,484v13.5"/><path fill="none" stroke="#fff" stroke-linecap="round" stroke-linejoin="round" stroke-width="3" d="M501.5,484v13.5"/><path fill="none" stroke="#fff" stroke-linecap="round" stroke-linejoin="round" stroke-width="3" d="M510.5,497.5l4.5,1.5"/><path fill="none" stroke="#fff" stroke-linecap="round" stroke-linejoin="round" stroke-width="3" d="M497,499l4.5-1.5"/><path fill="none" stroke="#fff" stroke-linecap="round" stroke-linejoin="round" stroke-width="3" d="M506,508l9-9"/><path fill="none" stroke="#fff" stroke-linecap="round" stroke-linejoin="round" stroke-width="3" d="M506,508l-9-9"/><path fill="#fff" d="M535.1,462h250.7c4.5,0,8.1,4.4,8.1,9.8v60.5c0,5.4-3.6,9.8-8.1,9.8h-250.7v-80Z"/></g><g><path fill="#92a9ef" d="M1627,191.8c0-5.4,3.6-9.8,8.1-9.8h57v80h-56.2c-4.9,0-8.9-4.8-8.9-10.7v-59.5Z"/><path fill="none" stroke="#fff" stroke-linecap="round" stroke-linejoin="round" stroke-width="3" d="M1642,228.4l18,5.1v5.9l-18-5.1v-5.8Z"/><path fill="none" stroke="#fff" stroke-linecap="round" stroke-linejoin="round" stroke-width="3" d="M1660,233.7l18-5.1v5.9l-18,5.1v-5.8Z"/><path fill="none" stroke="#fff" stroke-linecap="round" stroke-linejoin="round" stroke-width="3" d="M1642,228l13.5-3.8M1664.5,224.2l13.5,3.8"/><path fill="none" stroke="#fff" stroke-linecap="round" stroke-linejoin="round" stroke-width="3" d="M1655.5,228v-13.5"/><path fill="none" stroke="#fff" stroke-linecap="round" stroke-linejoin="round" stroke-width="3" d="M1664.5,228v-13.5"/><path fill="none" stroke="#fff" stroke-linecap="round" stroke-linejoin="round" stroke-width="3" d="M1655.5,214.5l-4.5-1.5"/><path fill="none" stroke="#fff" stroke-linecap="round" stroke-linejoin="round" stroke-width="3" d="M1669,213l-4.5,1.5"/><path fill="none" stroke="#fff" stroke-linecap="round" stroke-linejoin="round" stroke-width="3" d="M1660,204l-9,9"/><path fill="none" stroke="#fff" stroke-linecap="round" stroke-linejoin="round" stroke-width="3" d="M1660,204l9,9"/><path fill="#fff" d="M1692.1,182h250.7c4.5,0,8.1,4.4,8.1,9.8v60.5c0,5.4-3.6,9.8-8.1,9.8h-250.7v-80Z"/></g><g><path fill="#92a9ef" d="M1048,133.8c0-5.4,3.6-9.8,8.1-9.8h57v80h-56.2c-4.9,0-8.9-4.8-8.9-10.7v-59.5Z"/><path fill="none" stroke="#fff" stroke-linecap="round" stroke-linejoin="round" stroke-width="3" d="M1090,151h-18c-3.3,0-6,2.7-6,6v18c0,3.3,2.7,6,6,6h18c3.3,0,6-2.7,6-6v-18c0-3.3-2.7-6-6-6Z"/><path fill="none" stroke="#fff" stroke-linecap="round" stroke-linejoin="round" stroke-width="3" d="M1087,157h-12c-1.7,0-3,1.3-3,3v12c0,1.7,1.3,3,3,3h12c1.7,0,3-1.3,3-3v-12c0-1.7-1.3-3-3-3Z"/><path fill="none" stroke="#fff" stroke-linecap="round" stroke-linejoin="round" stroke-width="3" d="M1073.5,151v-6"/><path fill="none" stroke="#fff" stroke-linecap="round" stroke-linejoin="round" stroke-width="3" d="M1073.5,187v-6"/><path fill="none" stroke="#fff" stroke-linecap="round" stroke-linejoin="round" stroke-width="3" d="M1081,151v-6"/><path fill="none" stroke="#fff" stroke-linecap="round" stroke-linejoin="round" stroke-width="3" d="M1081,187v-6"/><path fill="none" stroke="#fff" stroke-linecap="round" stroke-linejoin="round" stroke-width="3" d="M1088.5,151v-6"/><path fill="none" stroke="#fff" stroke-linecap="round" stroke-linejoin="round" stroke-width="3" d="M1088.5,187v-6"/><path fill="none" stroke="#fff" stroke-linecap="round" stroke-linejoin="round" stroke-width="3" d="M1096,173.5h6"/><path fill="none" stroke="#fff" stroke-linecap="round" stroke-linejoin="round" stroke-width="3" d="M1060,173.5h6"/><path fill="none" stroke="#fff" stroke-linecap="round" stroke-linejoin="round" stroke-width="3" d="M1096,166h6"/><path fill="none" stroke="#fff" stroke-linecap="round" stroke-linejoin="round" stroke-width="3" d="M1085.5,166h3.5"/><path fill="none" stroke="#fff" stroke-linecap="round" stroke-linejoin="round" stroke-width="3" d="M1073.5,163h3.5"/><path fill="none" stroke="#fff" stroke-linecap="round" stroke-linejoin="round" stroke-width="3" d="M1079.5,174v-3.5"/><path fill="none" stroke="#fff" stroke-linecap="round" stroke-linejoin="round" stroke-width="3" d="M1060,166h6"/><path fill="none" stroke="#fff" stroke-linecap="round" stroke-linejoin="round" stroke-width="3" d="M1096,158.5h6"/><path fill="none" stroke="#fff" stroke-linecap="round" stroke-linejoin="round" stroke-width="3" d="M1060,158.5h6"/><path fill="#fff" d="M1113.1,124h250.7c4.5,0,8.1,4.4,8.1,9.8v60.5c0,5.4-3.6,9.8-8.1,9.8h-250.7v-80Z"/></g><g><path fill="#92a9ef" d="M1048,401.8c0-5.4,3.6-9.8,8.1-9.8h57v80h-56.2c-4.9,0-8.9-4.8-8.9-10.7v-59.5Z"/><path fill="none" stroke="#fff" stroke-linecap="round" stroke-linejoin="round" stroke-width="3" d="M1090,419h-18c-3.3,0-6,2.7-6,6v18c0,3.3,2.7,6,6,6h18c3.3,0,6-2.7,6-6v-18c0-3.3-2.7-6-6-6Z"/><path fill="none" stroke="#fff" stroke-linecap="round" stroke-linejoin="round" stroke-width="3" d="M1087,425h-12c-1.7,0-3,1.3-3,3v12c0,1.7,1.3,3,3,3h12c1.7,0,3-1.3,3-3v-12c0-1.7-1.3-3-3-3Z"/><path fill="none" stroke="#fff" stroke-linecap="round" stroke-linejoin="round" stroke-width="3" d="M1073.5,419v-6"/><path fill="none" stroke="#fff" stroke-linecap="round" stroke-linejoin="round" stroke-width="3" d="M1073.5,455v-6"/><path fill="none" stroke="#fff" stroke-linecap="round" stroke-linejoin="round" stroke-width="3" d="M1081,419v-6"/><path fill="none" stroke="#fff" stroke-linecap="round" stroke-linejoin="round" stroke-width="3" d="M1081,455v-6"/><path fill="none" stroke="#fff" stroke-linecap="round" stroke-linejoin="round" stroke-width="3" d="M1088.5,419v-6"/><path fill="none" stroke="#fff" stroke-linecap="round" stroke-linejoin="round" stroke-width="3" d="M1088.5,455v-6"/><path fill="none" stroke="#fff" stroke-linecap="round" stroke-linejoin="round" stroke-width="3" d="M1096,441.5h6"/><path fill="none" stroke="#fff" stroke-linecap="round" stroke-linejoin="round" stroke-width="3" d="M1060,441.5h6"/><path fill="none" stroke="#fff" stroke-linecap="round" stroke-linejoin="round" stroke-width="3" d="M1096,434h6"/><path fill="none" stroke="#fff" stroke-linecap="round" stroke-linejoin="round" stroke-width="3" d="M1085.5,434h3.5"/><path fill="none" stroke="#fff" stroke-linecap="round" stroke-linejoin="round" stroke-width="3" d="M1073.5,431h3.5"/><path fill="none" stroke="#fff" stroke-linecap="round" stroke-linejoin="round" stroke-width="3" d="M1079.5,442v-3.5"/><path fill="none" stroke="#fff" stroke-linecap="round" stroke-linejoin="round" stroke-width="3" d="M1060,434h6"/><path fill="none" stroke="#fff" stroke-linecap="round" stroke-linejoin="round" stroke-width="3" d="M1096,426.5h6"/><path fill="none" stroke="#fff" stroke-linecap="round" stroke-linejoin="round" stroke-width="3" d="M1060,426.5h6"/><path fill="#fff" d="M1113.1,392h250.7c4.5,0,8.1,4.4,8.1,9.8v60.5c0,5.4-3.6,9.8-8.1,9.8h-250.7v-80Z"/></g><g><path fill="#92a9ef" d="M1627,401.8c0-5.4,3.6-9.8,8.1-9.8h57v80h-56.2c-4.9,0-8.9-4.8-8.9-10.7v-59.5Z"/><path fill="none" stroke="#fff" stroke-linecap="round" stroke-linejoin="round" stroke-width="3" d="M1642,438.4l18,5.1v5.8l-18-5.1v-5.9Z"/><path fill="none" stroke="#fff" stroke-linecap="round" stroke-linejoin="round" stroke-width="3" d="M1660,443.7l18-5.1v5.8l-18,5.1v-5.9Z"/><path fill="none" stroke="#fff" stroke-linecap="round" stroke-linejoin="round" stroke-width="3" d="M1642,438l13.5-3.8M1664.5,434.2l13.5,3.8"/><path fill="none" stroke="#fff" stroke-linecap="round" stroke-linejoin="round" stroke-width="3" d="M1655.5,438v-13.5"/><path fill="none" stroke="#fff" stroke-linecap="round" stroke-linejoin="round" stroke-width="3" d="M1664.5,438v-13.5"/><path fill="none" stroke="#fff" stroke-linecap="round" stroke-linejoin="round" stroke-width="3" d="M1655.5,424.5l-4.5-1.5"/><path fill="none" stroke="#fff" stroke-linecap="round" stroke-linejoin="round" stroke-width="3" d="M1669,423l-4.5,1.5"/><path fill="none" stroke="#fff" stroke-linecap="round" stroke-linejoin="round" stroke-width="3" d="M1660,414l-9,9"/><path fill="none" stroke="#fff" stroke-linecap="round" stroke-linejoin="round" stroke-width="3" d="M1660,414l9,9"/><path fill="#fff" d="M1692.1,392h250.7c4.5,0,8.1,4.4,8.1,9.8v60.5c0,5.4-3.6,9.8-8.1,9.8h-250.7v-80Z"/></g><path fill="#7d88a1" d="M1037.6,166.7c.6-.7.6-1.7,0-2.4l-9.8-10.8c-.6-.7-1.6-.7-2.2,0-.6.7-.6,1.7,0,2.4l8.7,9.6-8.7,9.6c-.6.7-.6,1.7,0,2.4.6.7,1.6.7,2.2,0l9.8-10.8ZM805,167.2h231.5v-3.4h-231.5v3.4Z"/><path fill="#7d88a1" d="M1043.9,418.9c.8-.6,1.1-1.9.7-2.8l-7.4-15c-.5-.9-1.5-1.2-2.3-.5-.8.6-1.1,1.9-.6,2.8l6.6,13.4-11.8,9.1c-.8.6-1.1,1.9-.7,2.8.5.9,1.5,1.2,2.3.5l13.3-10.2ZM796.8,362.4l245.9,56.8.9-4-245.9-56.8-.9,4Z"/><path fill="#7d88a1" d="M1040.5,440c.4-.9,0-2-.9-2.5l-14.1-7.6c-.9-.5-1.9-.1-2.2.8-.4.9,0,2,.9,2.5l12.6,6.8-5.2,13.3c-.4.9,0,2,.9,2.5.9.5,1.9.1,2.2-.8l5.9-14.9ZM802.2,527.3l237.4-86.4-1.3-3.5-237.4,86.4,1.3,3.5Z"/><path fill="#7d88a1" d="M1620.8,85.8c.4-.9.1-2-.7-2.6l-13.4-8.8c-.8-.5-1.8-.3-2.3.6-.4.9-.1,2,.7,2.6l11.9,7.9-6.4,12.8c-.4.9-.1,2,.7,2.6.8.5,1.9.3,2.3-.6l7.2-14.3ZM1375.8,152l244-65.4-1-3.6-244,65.4,1,3.6Z"/><path fill="#7d88a1" d="M1615.6,434.7c.6-.7.6-1.7,0-2.4l-9.8-10.8c-.6-.7-1.6-.7-2.2,0s-.6,1.7,0,2.4l8.7,9.6-8.7,9.6c-.6.7-.6,1.7,0,2.4s1.6.7,2.2,0l9.8-10.8ZM1383,435.2h231.5v-3.4h-231.5v3.4Z"/><g><path fill="#92a9ef" d="M1627,71.8c0-5.4,3.6-9.8,8.1-9.8h57v80h-56.2c-4.9,0-8.9-4.8-8.9-10.7v-59.5Z"/><path fill="none" stroke="#fff" stroke-linecap="round" stroke-linejoin="round" stroke-width="3" d="M1659.5,117.5c8.3,0,15-6.7,15-15s-6.7-15-15-15-15,6.7-15,15,6.7,15,15,15Z"/><path fill="none" stroke="#fff" stroke-linecap="round" stroke-linejoin="round" stroke-width="3" d="M1659.5,108.5c3.3,0,6-2.7,6-6s-2.7-6-6-6-6,2.7-6,6,2.7,6,6,6Z"/><path fill="none" stroke="#fff" stroke-linecap="round" stroke-linejoin="round" stroke-width="3" d="M1674.5,102.5h6"/><path fill="none" stroke="#fff" stroke-linecap="round" stroke-linejoin="round" stroke-width="3" d="M1640,102.5h4.5"/><path fill="none" stroke="#fff" stroke-linecap="round" stroke-linejoin="round" stroke-width="3" d="M1673,93.5l6-3"/><path fill="none" stroke="#fff" stroke-linecap="round" stroke-linejoin="round" stroke-width="3" d="M1673,111.5l6,3.8"/><path fill="#fff" d="M1692.1,62h250.7c4.5,0,8.1,4.4,8.1,9.8v60.5c0,5.4-3.6,9.8-8.1,9.8h-250.7V62Z"/></g><path fill="#edf2df" d="M805,432.2v-97.3c0-2.1-2.6-3.8-5.8-3.8h-334.4c-3.2,0-5.8,1.7-5.8,3.8v97.3c0,2.1,2.6,3.8,5.8,3.8h334.4c3.2,0,5.8-1.7,5.8-3.8Z"/><g><path fill="#92a9ef" stroke="#fff" d="M470.5,351.8c0-5.2,3.5-9.3,7.6-9.3h56.5v79h-55.7c-4.6,0-8.5-4.5-8.5-10.2v-59.5Z"/><path fill="none" stroke="#fff" stroke-linecap="round" stroke-linejoin="round" stroke-width="3" d="M501.5,396.5c8.3,0,15-6.7,15-15s-6.7-15-15-15-15,6.7-15,15,6.7,15,15,15Z"/><path fill="none" stroke="#fff" stroke-linecap="round" stroke-linejoin="round" stroke-width="3" d="M501.5,387.5c3.3,0,6-2.7,6-6s-2.7-6-6-6-6,2.7-6,6,2.7,6,6,6Z"/><path fill="#fff" stroke="#fff" d="M535.6,342.5h250.2c4.1,0,7.6,4.1,7.6,9.3v60.5c0,5.2-3.5,9.3-7.6,9.3h-250.2v-79Z"/></g><path fill="#7d88a1" d="M1625.1,226c.8-.6,1.1-1.9.6-2.8l-7.4-15c-.5-.9-1.5-1.2-2.3-.5-.8.6-1.1,1.9-.6,2.8l6.6,13.4-11.8,9.1c-.8.6-1.1,1.9-.7,2.8.5.9,1.5,1.2,2.3.5l13.3-10.2ZM1377.9,169.6l245.9,56.8.9-4-245.9-56.8-.9,4Z"/><path fill="none" stroke="#a9c265" stroke-width="6" d="M634,334v-23.5c0-11,9-20,20-20h1350.5c11.1,0,20-9,20-20V117c0-11-8.9-20-20-20h-42.5"/></g></g><path fill="#a9c265" d="M646.9,316.8l-13.1,13.1-13.1-13.1c-1.2-1.2-3.1-1.2-4.3,0h0c-1.2,1.2-1.2,3.1,0,4.3l15.3,15.3c1.2,1.2,3.1,1.2,4.3,0h0s15.3-15.3,15.3-15.3c1.2-1.2,1.2-3.1,0-4.3-1.2-1.2-3.1-1.2-4.3,0Z"/><text fill="#8fa5ed" font-family="Arial-BoldMT, Arial" font-size="38" font-weight="700" transform="translate(154.1 171.1)"><tspan x="0" y="0">Traces Pipeline:</tspan></text><text fill="#7d88a1" font-family="ArialMT, Arial" font-size="36" transform="translate(555.1 174.7)"><tspan x="0" y="0">Receiver</tspan></text><text fill="#7d88a1" font-family="ArialMT, Arial" font-size="36" transform="translate(556.6 393.4)"><tspan x="0" y="0">Connector</tspan></text><text fill="#7d88a1" font-family="ArialMT, Arial" font-size="36" transform="translate(555.1 515)"><tspan x="0" y="0">Receiver</tspan></text><text fill="#7d88a1" font-family="ArialMT, Arial" font-size="36" transform="translate(1715.7 231.7)"><tspan x="0" y="0">Exporter</tspan></text><text fill="#7d88a1" font-family="ArialMT, Arial" font-size="36" transform="translate(1716.2 442.3)"><tspan x="0" y="0">Exporter</tspan></text><text fill="#7d88a1" font-family="ArialMT, Arial" font-size="36" transform="translate(1715.4 112)"><tspan x="0" y="0">Connector</tspan></text><text fill="#7d88a1" font-family="ArialMT, Arial" font-size="36" transform="translate(1137.8 176.4)"><tspan x="0" y="0">Processor</tspan></text><text fill="#7d88a1" font-family="ArialMT, Arial" font-size="36" transform="translate(1134.3 443.6)"><tspan x="0" y="0">Processor</tspan></text><text fill="#8fa5ed" font-family="Arial-BoldMT, Arial" font-size="38" font-weight="700" transform="translate(146.7 436.8)"><tspan x="0" y="0">Metrics Pipeline:</tspan></text><metadata/></svg>