<svg xmlns="http://www.w3.org/2000/svg" xmlns:svg="http://www.w3.org/2000/svg" id="Layer_1" version="1.1" viewBox="0 0 1500 996"><defs id="defs29"><style id="style1">.st0,.st1,.st2,.st3,.st4{fill:none}.st5,.st6,.st7,.st8,.st9{fill:#7d88a1}.st10{filter:url(#drop-shadow-1)}.st11{filter:url(#drop-shadow-3)}.st12{filter:url(#drop-shadow-2)}.st13{filter:url(#drop-shadow-14)}.st13,.st14,.st15,.st16,.st17,.st18,.st19,.st20,.st21,.st22,.st23,.st24{fill:#fff}.st14{filter:url(#drop-shadow-13)}.st15{filter:url(#drop-shadow-10)}.st16{filter:url(#drop-shadow-12)}.st17{filter:url(#drop-shadow-11)}.st25{fill:#566381}.st26{fill:#8ea9ec}.st1,.st2{stroke-miterlimit:10}.st1,.st2,.st3{stroke:#fff;stroke-width:3px}.st27{fill:#f6f7f9}.st28{fill:#f5a800;font-size:33px;letter-spacing:0}.st28,.st29,.st30,.st31,.st9{font-family:Arial-BoldMT,Arial;font-weight:700}.st32{fill:#e8f6fc}.st33{clip-path:url(#clippath-1)}.st34{clip-path:url(#clippath-2)}.st31,.st35{fill:#acb3c3}.st2,.st3{stroke-linecap:round}.st3{stroke-linejoin:round}.st29,.st30,.st7,.st8,.st9{font-size:30px}.st29,.st8{letter-spacing:0}.st29,.st36,.st37{fill:#a9c265}.st19{filter:url(#drop-shadow-9)}.st20{filter:url(#drop-shadow-8)}.st21{filter:url(#drop-shadow-6)}.st22{filter:url(#drop-shadow-7)}.st23{filter:url(#drop-shadow-5)}.st24{filter:url(#drop-shadow-4)}.st30{fill:#0778d4;isolation:isolate;opacity:.6}.st30,.st7,.st9{letter-spacing:0}.st6{fill-rule:evenodd}.st7,.st8{font-family:ArialMT,Arial}.st38{fill:#d6d9e1}.st39{fill:#fffaeb}.st31{font-size:32px;letter-spacing:0}.st4{stroke:#acb3c3;stroke-dasharray:6.8 6.8;stroke-width:3.4px}.st37{fill-opacity:.2}.st40{clip-path:url(#clippath)}</style><filter id="drop-shadow-1" width="404" height="228" x="650" y="345" filterUnits="userSpaceOnUse"><feOffset id="feOffset1" dx="5" dy="5"/><feGaussianBlur id="feGaussianBlur1" result="blur" stdDeviation="10"/><feFlood id="feFlood1" flood-color="#000" flood-opacity=".2"/><feComposite id="feComposite1" in2="blur" operator="in"/><feComposite id="feComposite2" in="SourceGraphic"/></filter><filter id="drop-shadow-2" width="404" height="228" x="644" y="339" filterUnits="userSpaceOnUse"><feOffset id="feOffset2" dx="5" dy="5"/><feGaussianBlur id="feGaussianBlur2" result="blur1" stdDeviation="10"/><feFlood id="feFlood2" flood-color="#000" flood-opacity=".2"/><feComposite id="feComposite3" in2="blur1" operator="in"/><feComposite id="feComposite4" in="SourceGraphic"/></filter><filter id="drop-shadow-3" width="404" height="228" x="637" y="333" filterUnits="userSpaceOnUse"><feOffset id="feOffset4" dx="5" dy="5"/><feGaussianBlur id="feGaussianBlur4" result="blur2" stdDeviation="10"/><feFlood id="feFlood4" flood-color="#000" flood-opacity=".2"/><feComposite id="feComposite5" in2="blur2" operator="in"/><feComposite id="feComposite6" in="SourceGraphic"/></filter><filter id="drop-shadow-4" width="249" height="112" x="67" y="799" filterUnits="userSpaceOnUse"><feOffset id="feOffset6" dx="5" dy="5"/><feGaussianBlur id="feGaussianBlur6" result="blur3" stdDeviation="5"/><feFlood id="feFlood6" flood-color="#000" flood-opacity="0"/><feComposite id="feComposite7" in2="blur3" operator="in"/><feComposite id="feComposite8" in="SourceGraphic"/></filter><clipPath id="clippath"><rect id="rect8" width="49.8" height="29.8" x="213.9" y="835" class="st0"/></clipPath><clipPath id="clippath-1"><rect id="rect9" width="34.9" height="34.9" x="165.7" y="832.6" class="st0"/></clipPath><clipPath id="clippath-2"><rect id="rect10" width="43.4" height="34.9" x="109" y="832.6" class="st0"/></clipPath><filter id="drop-shadow-5" width="257" height="112" x="67" y="587" filterUnits="userSpaceOnUse"><feOffset id="feOffset10" dx="5" dy="5"/><feGaussianBlur id="feGaussianBlur10" result="blur4" stdDeviation="5"/><feFlood id="feFlood10" flood-color="#000" flood-opacity="0"/><feComposite id="feComposite10" in2="blur4" operator="in"/><feComposite id="feComposite11" in="SourceGraphic"/></filter><filter id="drop-shadow-6" width="289" height="142" x="1163" y="248" filterUnits="userSpaceOnUse"><feOffset id="feOffset11" dx="5" dy="5"/><feGaussianBlur id="feGaussianBlur11" result="blur5" stdDeviation="5"/><feFlood id="feFlood11" flood-color="#000" flood-opacity="0"/><feComposite id="feComposite12" in2="blur5" operator="in"/><feComposite id="feComposite13" in="SourceGraphic"/></filter><filter id="drop-shadow-7" width="289" height="142" x="1163" y="389" filterUnits="userSpaceOnUse"><feOffset id="feOffset13" dx="5" dy="5"/><feGaussianBlur id="feGaussianBlur13" result="blur6" stdDeviation="5"/><feFlood id="feFlood13" flood-color="#000" flood-opacity="0"/><feComposite id="feComposite14" in2="blur6" operator="in"/><feComposite id="feComposite15" in="SourceGraphic"/></filter><filter id="drop-shadow-8" width="289" height="142" x="1163" y="530" filterUnits="userSpaceOnUse"><feOffset id="feOffset15" dx="5" dy="5"/><feGaussianBlur id="feGaussianBlur15" result="blur7" stdDeviation="5"/><feFlood id="feFlood15" flood-color="#000" flood-opacity="0"/><feComposite id="feComposite16" in2="blur7" operator="in"/><feComposite id="feComposite17" in="SourceGraphic"/></filter><filter id="drop-shadow-9" width="292" height="112" x="634" y="797" filterUnits="userSpaceOnUse"><feOffset id="feOffset17" dx="5" dy="5"/><feGaussianBlur id="feGaussianBlur17" result="blur8" stdDeviation="5"/><feFlood id="feFlood17" flood-color="#000" flood-opacity="0"/><feComposite id="feComposite18" in2="blur8" operator="in"/><feComposite id="feComposite19" in="SourceGraphic"/></filter><filter id="drop-shadow-10" width="157" height="112" x="914" y="797" filterUnits="userSpaceOnUse"><feOffset id="feOffset19" dx="5" dy="5"/><feGaussianBlur id="feGaussianBlur19" result="blur9" stdDeviation="5"/><feFlood id="feFlood19" flood-color="#000" flood-opacity="0"/><feComposite id="feComposite20" in2="blur9" operator="in"/><feComposite id="feComposite21" in="SourceGraphic"/></filter><filter id="drop-shadow-11" width="214" height="112" x="67" y="262" filterUnits="userSpaceOnUse"><feOffset id="feOffset21" dx="5" dy="5"/><feGaussianBlur id="feGaussianBlur21" result="blur10" stdDeviation="5"/><feFlood id="feFlood21" flood-color="#000" flood-opacity="0"/><feComposite id="feComposite22" in2="blur10" operator="in"/><feComposite id="feComposite23" in="SourceGraphic"/></filter><filter id="drop-shadow-12" width="310" height="112" x="67" y="164" filterUnits="userSpaceOnUse"><feOffset id="feOffset23" dx="5" dy="5"/><feGaussianBlur id="feGaussianBlur23" result="blur11" stdDeviation="5"/><feFlood id="feFlood23" flood-color="#000" flood-opacity="0"/><feComposite id="feComposite24" in2="blur11" operator="in"/><feComposite id="feComposite25" in="SourceGraphic"/></filter><filter id="drop-shadow-13" width="217" height="112" x="67" y="693" filterUnits="userSpaceOnUse"><feOffset id="feOffset25" dx="5" dy="5"/><feGaussianBlur id="feGaussianBlur25" result="blur12" stdDeviation="5"/><feFlood id="feFlood25" flood-color="#000" flood-opacity="0"/><feComposite id="feComposite26" in2="blur12" operator="in"/><feComposite id="feComposite27" in="SourceGraphic"/></filter><filter id="drop-shadow-14" width="227" height="112" x="67" y="368" filterUnits="userSpaceOnUse"><feOffset id="feOffset27" dx="5" dy="5"/><feGaussianBlur id="feGaussianBlur27" result="blur13" stdDeviation="5"/><feFlood id="feFlood27" flood-color="#000" flood-opacity="0"/><feComposite id="feComposite28" in2="blur13" operator="in"/><feComposite id="feComposite29" in="SourceGraphic"/></filter></defs><rect id="rect29" width="1500" height="996" y="0" class="st0"/><rect id="rect30" width="1500" height="996" y="0" class="st0"/><g id="g31" class="st10"><path id="path30" d="M675,384c0-5.5,4.5-10,10-10h70v164h-69c-6.1,0-11-4.9-11-11v-143Z" class="st26"/><path id="path31" d="M755,370h254c5.5,0,10,4.5,10,10v148c0,5.5-4.5,10-10,10h-254v-168Z" class="st18"/></g><path id="path32" d="M706.3,458.9v12c0,.8.6,1.5,1.5,1.5h22.8c.8,0,1.5-.6,1.5-1.5v-12" class="st3"/><path id="path33" d="M713.7,467.1c1.9,0,3.4-1.5,3.4-3.4s-1.5-3.5-3.4-3.5-3.5,1.5-3.5,3.5,1.5,3.4,3.5,3.4Z" class="st3"/><path id="path34" d="M724.6,467.1c1.9,0,3.5-1.5,3.5-3.4s-1.5-3.5-3.5-3.5-3.4,1.5-3.4,3.5,1.5,3.4,3.4,3.4Z" class="st3"/><path id="path35" d="M713.5,456.4c1.9,0,3.5-1.5,3.5-3.5s-1.5-3.4-3.5-3.4-3.5,1.5-3.5,3.4,1.5,3.5,3.5,3.5Z" class="st3"/><path id="path36" d="M715.9,441.2l2.7,2.7h0c-.4.6-.8.9-1,1.2-.1.1-.3.3-.3.4h-.2c-.4-.3-1-.6-1.6-.8-.9-.3-1.7-.3-2.5-.3s-2,.3-2.9.8h-.1c-.6-.6-1.1-1.1-1.7-1.6s-.5-.3-.6-.6h0c0-.1,4.9-5,4.9-5h.2c1,1.1,2.1,2.1,3.2,3.1Z" class="st1"/><path id="path37" d="M702.2,456.4c-1.2-1.1-2.4-2.2-3.5-3.3h0c.3-.4.8-.8,1-1.2,1.8-1.8,3.8-3.5,5.6-5.2h.1c.3.3.6.6.9.9-.8,1.6-.9,3.3-.3,5.1h0c-1.4,1.5-2.7,2.7-3.9,3.8Z" class="st1"/><path id="path38" d="M700.2,455.3l-3.5,3.5" class="st2"/><path id="path39" d="M695.5,457.6l2.2,2.2" class="st2"/><path id="path40" d="M715.2,432.2l1.5-1.4c.6-.5,1.3-.5,1.9,0l7.5,7.2c.6.6.6,1.5,0,2.1l-1.5,1.4c-.6.5-1.3.5-1.9,0l-7.5-7.2c-.6-.6-.6-1.5,0-2.1Z" class="st3"/><path id="path41" d="M808.1,453.6c0,2.3-.4,4.3-1.2,6s-2,3-3.4,3.9c-1.4.9-3.1,1.4-5,1.4s-3.5-.5-5-1.4c-1.4-.9-2.6-2.2-3.4-3.9-.8-1.7-1.2-3.7-1.2-6s.4-4.3,1.2-6c.8-1.7,2-3,3.4-3.9,1.4-.9,3.1-1.4,5-1.4s3.5.5,5,1.4c1.4.9,2.6,2.2,3.4,3.9s1.2,3.7,1.2,6ZM805.6,453.6c0-1.9-.3-3.5-.9-4.8-.6-1.3-1.5-2.3-2.5-3-1.1-.7-2.3-1-3.6-1s-2.5.3-3.6,1c-1.1.7-1.9,1.7-2.5,3-.6,1.3-.9,2.9-.9,4.8s.3,3.5.9,4.8c.6,1.3,1.5,2.3,2.5,3,1.1.7,2.3,1,3.6,1s2.5-.3,3.6-1c1.1-.7,1.9-1.7,2.5-3,.6-1.3.9-2.9.9-4.8ZM810.5,445v-2.3h16.4v2.3h-6.9v19.5h-2.6v-19.5h-6.9ZM835.1,464.8c-1.6,0-2.9-.3-4.1-1-1.1-.7-2-1.7-2.6-2.9-.6-1.3-.9-2.7-.9-4.4s.3-3.2.9-4.4c.6-1.3,1.5-2.3,2.6-3,1.1-.7,2.4-1.1,3.9-1.1s1.7.1,2.5.4c.8.3,1.6.7,2.3,1.4.7.6,1.2,1.5,1.6,2.5.4,1,.6,2.3.6,3.9v1.1h-12.6v-2.2h10.1c0-.9-.2-1.7-.6-2.5-.4-.7-.9-1.3-1.6-1.7-.7-.4-1.5-.6-2.4-.6s-1.9.2-2.6.7c-.7.5-1.3,1.1-1.7,1.9-.4.8-.6,1.6-.6,2.5v1.4c0,1.2.2,2.3.6,3.1.4.9,1,1.5,1.8,2,.8.4,1.7.7,2.7.7s1.3,0,1.8-.3c.5-.2,1-.5,1.4-.9.4-.4.7-.9.9-1.4l2.4.7c-.3.8-.7,1.5-1.3,2.2-.6.6-1.4,1.1-2.2,1.4-.9.3-1.9.5-3,.5ZM848.2,442.7v21.8h-2.5v-21.8h2.5ZM879.1,449.5h-2.6c-.2-.8-.4-1.4-.8-2-.4-.6-.9-1.1-1.4-1.4-.5-.4-1.2-.7-1.8-.9-.7-.2-1.4-.3-2.1-.3-1.3,0-2.5.3-3.6,1-1.1.7-1.9,1.7-2.5,3-.6,1.3-.9,2.9-.9,4.8s.3,3.5.9,4.8c.6,1.3,1.5,2.3,2.5,3,1.1.7,2.3,1,3.6,1s1.4-.1,2.1-.3c.7-.2,1.3-.5,1.8-.9.6-.4,1-.9,1.4-1.5.4-.6.7-1.2.8-2h2.6c-.2,1.1-.6,2.1-1.1,3-.5.9-1.2,1.6-2,2.2-.8.6-1.7,1.1-2.6,1.4-1,.3-2,.5-3.1.5-1.9,0-3.5-.5-5-1.4-1.4-.9-2.6-2.2-3.4-3.9-.8-1.7-1.2-3.7-1.2-6s.4-4.3,1.2-6c.8-1.7,2-3,3.4-3.9,1.4-.9,3.1-1.4,5-1.4s2.1.2,3.1.5c1,.3,1.9.8,2.6,1.4.8.6,1.4,1.4,2,2.2.5.9.9,1.9,1.1,3ZM889.7,464.8c-1.5,0-2.8-.4-3.9-1.1-1.1-.7-2-1.7-2.6-3-.6-1.3-.9-2.7-.9-4.4s.3-3.2.9-4.5c.6-1.3,1.5-2.3,2.6-3,1.1-.7,2.4-1.1,3.9-1.1s2.8.4,3.9,1.1c1.1.7,2,1.7,2.6,3,.6,1.3.9,2.8.9,4.5s-.3,3.2-.9,4.4c-.6,1.3-1.5,2.2-2.6,3-1.1.7-2.4,1.1-3.9,1.1ZM889.7,462.6c1.1,0,2-.3,2.8-.9.7-.6,1.3-1.3,1.6-2.3.3-.9.5-2,.5-3s-.2-2.1-.5-3.1c-.3-.9-.9-1.7-1.6-2.3-.7-.6-1.6-.9-2.8-.9s-2,.3-2.8.9c-.7.6-1.3,1.3-1.6,2.3-.3.9-.5,2-.5,3.1s.2,2.1.5,3c.3.9.9,1.7,1.6,2.3.7.6,1.6.9,2.8.9ZM903.5,442.7v21.8h-2.5v-21.8h2.5ZM910.6,442.7v21.8h-2.5v-21.8h2.5ZM922.1,464.8c-1.6,0-2.9-.3-4.1-1-1.1-.7-2-1.7-2.6-2.9-.6-1.3-.9-2.7-.9-4.4s.3-3.2.9-4.4c.6-1.3,1.5-2.3,2.6-3,1.1-.7,2.4-1.1,3.9-1.1s1.7.1,2.5.4c.8.3,1.6.7,2.3,1.4.7.6,1.2,1.5,1.6,2.5.4,1,.6,2.3.6,3.9v1.1h-12.6v-2.2h10.1c0-.9-.2-1.7-.6-2.5-.4-.7-.9-1.3-1.6-1.7-.7-.4-1.5-.6-2.4-.6s-1.9.2-2.6.7c-.7.5-1.3,1.1-1.7,1.9-.4.8-.6,1.6-.6,2.5v1.4c0,1.2.2,2.3.6,3.1.4.9,1,1.5,1.8,2,.8.4,1.7.7,2.7.7s1.3,0,1.8-.3c.5-.2,1-.5,1.4-.9.4-.4.7-.9.9-1.4l2.4.7c-.3.8-.7,1.5-1.3,2.2-.6.6-1.3,1.1-2.2,1.4-.9.3-1.9.5-3,.5ZM939.3,464.8c-1.5,0-2.9-.4-4-1.1-1.1-.7-2-1.7-2.6-3-.6-1.3-.9-2.7-.9-4.4s.3-3.1.9-4.4c.6-1.3,1.5-2.3,2.6-3,1.1-.7,2.4-1.1,3.9-1.1s2.2.2,3.1.6c.9.4,1.7,1,2.3,1.8.6.8,1,1.7,1.1,2.7h-2.5c-.2-.7-.6-1.4-1.3-2-.7-.6-1.5-.9-2.6-.9s-1.8.3-2.6.8c-.7.5-1.3,1.2-1.7,2.1-.4.9-.6,2-.6,3.2s.2,2.4.6,3.3c.4.9,1,1.7,1.7,2.2.7.5,1.6.8,2.6.8s1.2-.1,1.8-.3c.5-.2,1-.6,1.4-1,.4-.4.6-.9.8-1.5h2.5c-.1,1-.5,1.8-1.1,2.6-.6.8-1.3,1.4-2.2,1.8-.9.4-2,.7-3.2.7ZM956.5,448.1v2.1h-8.5v-2.1h8.5ZM950.5,444.2h2.5v15.6c0,.7.1,1.2.3,1.6.2.3.5.6.8.7.3.1.7.2,1.1.2s.5,0,.7,0c.2,0,.3,0,.4,0l.5,2.3c-.2,0-.4.1-.7.2-.3,0-.7.1-1.2.1-.7,0-1.4-.2-2.1-.5-.7-.3-1.2-.8-1.7-1.4-.4-.6-.7-1.4-.7-2.4v-16.3ZM966.8,464.8c-1.5,0-2.8-.4-3.9-1.1-1.1-.7-2-1.7-2.6-3-.6-1.3-.9-2.7-.9-4.4s.3-3.2.9-4.5c.6-1.3,1.5-2.3,2.6-3,1.1-.7,2.4-1.1,3.9-1.1s2.8.4,3.9,1.1c1.1.7,2,1.7,2.6,3,.6,1.3.9,2.8.9,4.5s-.3,3.2-.9,4.4c-.6,1.3-1.5,2.2-2.6,3-1.1.7-2.4,1.1-3.9,1.1ZM966.8,462.6c1.1,0,2-.3,2.8-.9.7-.6,1.3-1.3,1.6-2.3.3-.9.5-2,.5-3s-.2-2.1-.5-3.1c-.3-.9-.9-1.7-1.6-2.3-.7-.6-1.6-.9-2.8-.9s-2,.3-2.8.9c-.7.6-1.3,1.3-1.6,2.3-.3.9-.5,2-.5,3.1s.2,2.1.5,3c.3.9.9,1.7,1.6,2.3.7.6,1.6.9,2.8.9ZM978,464.5v-16.4h2.4v2.5h.2c.3-.8.8-1.5,1.6-2s1.7-.8,2.6-.8.4,0,.7,0c.3,0,.5,0,.6,0v2.6c0,0-.3,0-.6,0-.3,0-.6,0-.9,0-.8,0-1.5.2-2.1.5-.6.3-1.1.8-1.5,1.4-.4.6-.5,1.2-.5,2v10.4h-2.5Z" class="st5"/><g id="g43" class="st12"><path id="path42" d="M669,378c0-5.5,4.5-10,10-10h70v164h-69c-6.1,0-11-4.9-11-11v-143Z" class="st26"/><path id="path43" d="M749,364h254c5.5,0,10,4.5,10,10v148c0,5.5-4.5,10-10,10h-254v-168Z" class="st18"/></g><path id="path44" d="M700.3,452.9v12c0,.8.6,1.5,1.5,1.5h22.8c.8,0,1.5-.6,1.5-1.5v-12" class="st3"/><path id="path45" d="M707.7,461.1c1.9,0,3.4-1.5,3.4-3.4s-1.5-3.5-3.4-3.5-3.5,1.5-3.5,3.5,1.5,3.4,3.5,3.4Z" class="st3"/><path id="path46" d="M718.6,461.1c1.9,0,3.5-1.5,3.5-3.4s-1.5-3.5-3.5-3.5-3.4,1.5-3.4,3.5,1.5,3.4,3.4,3.4Z" class="st3"/><path id="path47" d="M707.5,450.4c1.9,0,3.5-1.5,3.5-3.5s-1.5-3.4-3.5-3.4-3.5,1.5-3.5,3.4,1.5,3.5,3.5,3.5Z" class="st3"/><path id="path48" d="M709.9,435.2l2.7,2.7h0c-.4.6-.8.9-1,1.2-.1.1-.3.3-.3.4h-.2c-.4-.3-1-.6-1.6-.8-.9-.3-1.7-.3-2.5-.3s-2,.3-2.9.8h-.1c-.6-.6-1.1-1.1-1.7-1.6s-.5-.3-.6-.6h0c0-.1,4.9-5,4.9-5h.2c1,1.1,2.1,2.1,3.2,3.1Z" class="st1"/><path id="path49" d="M696.2,450.4c-1.2-1.1-2.4-2.2-3.5-3.3h0c.3-.4.8-.8,1-1.2,1.8-1.8,3.8-3.5,5.6-5.2h.1c.3.3.6.6.9.9-.8,1.6-.9,3.3-.3,5.1h0c-1.4,1.5-2.7,2.7-3.9,3.8Z" class="st1"/><path id="path50" d="M694.2,449.3l-3.5,3.5" class="st2"/><path id="path51" d="M689.5,451.6l2.2,2.2" class="st2"/><path id="path52" d="M709.2,426.2l1.5-1.4c.6-.5,1.3-.5,1.9,0l7.5,7.2c.6.6.6,1.5,0,2.1l-1.5,1.4c-.6.5-1.3.5-1.9,0l-7.5-7.2c-.6-.6-.6-1.5,0-2.1Z" class="st3"/><path id="path53" d="M802.1,447.6c0,2.3-.4,4.3-1.2,6s-2,3-3.4,3.9c-1.4.9-3.1,1.4-5,1.4s-3.5-.5-5-1.4c-1.4-.9-2.6-2.2-3.4-3.9-.8-1.7-1.2-3.7-1.2-6s.4-4.3,1.2-6c.8-1.7,2-3,3.4-3.9,1.4-.9,3.1-1.4,5-1.4s3.5.5,5,1.4c1.4.9,2.6,2.2,3.4,3.9s1.2,3.7,1.2,6ZM799.6,447.6c0-1.9-.3-3.5-.9-4.8-.6-1.3-1.5-2.3-2.5-3-1.1-.7-2.3-1-3.6-1s-2.5.3-3.6,1c-1.1.7-1.9,1.7-2.5,3-.6,1.3-.9,2.9-.9,4.8s.3,3.5.9,4.8c.6,1.3,1.5,2.3,2.5,3,1.1.7,2.3,1,3.6,1s2.5-.3,3.6-1c1.1-.7,1.9-1.7,2.5-3,.6-1.3.9-2.9.9-4.8ZM804.5,439v-2.3h16.4v2.3h-6.9v19.5h-2.6v-19.5h-6.9ZM829.1,458.8c-1.6,0-2.9-.3-4.1-1-1.1-.7-2-1.7-2.6-2.9-.6-1.3-.9-2.7-.9-4.4s.3-3.2.9-4.4c.6-1.3,1.5-2.3,2.6-3,1.1-.7,2.4-1.1,3.9-1.1s1.7.1,2.5.4c.8.3,1.6.7,2.3,1.4.7.6,1.2,1.5,1.6,2.5.4,1,.6,2.3.6,3.9v1.1h-12.6v-2.2h10.1c0-.9-.2-1.7-.6-2.5-.4-.7-.9-1.3-1.6-1.7-.7-.4-1.5-.6-2.4-.6s-1.9.2-2.6.7c-.7.5-1.3,1.1-1.7,1.9-.4.8-.6,1.6-.6,2.5v1.4c0,1.2.2,2.3.6,3.1.4.9,1,1.5,1.8,2,.8.4,1.7.7,2.7.7s1.3,0,1.8-.3c.5-.2,1-.5,1.4-.9.4-.4.7-.9.9-1.4l2.4.7c-.3.8-.7,1.5-1.3,2.2-.6.6-1.4,1.1-2.2,1.4-.9.3-1.9.5-3,.5ZM842.2,436.7v21.8h-2.5v-21.8h2.5ZM873.1,443.5h-2.6c-.2-.8-.4-1.4-.8-2-.4-.6-.9-1.1-1.4-1.4-.5-.4-1.2-.7-1.8-.9-.7-.2-1.4-.3-2.1-.3-1.3,0-2.5.3-3.6,1-1.1.7-1.9,1.7-2.5,3-.6,1.3-.9,2.9-.9,4.8s.3,3.5.9,4.8c.6,1.3,1.5,2.3,2.5,3,1.1.7,2.3,1,3.6,1s1.4-.1,2.1-.3c.7-.2,1.3-.5,1.8-.9.6-.4,1-.9,1.4-1.5.4-.6.7-1.2.8-2h2.6c-.2,1.1-.6,2.1-1.1,3-.5.9-1.2,1.6-2,2.2-.8.6-1.7,1.1-2.6,1.4-1,.3-2,.5-3.1.5-1.9,0-3.5-.5-5-1.4-1.4-.9-2.6-2.2-3.4-3.9-.8-1.7-1.2-3.7-1.2-6s.4-4.3,1.2-6c.8-1.7,2-3,3.4-3.9,1.4-.9,3.1-1.4,5-1.4s2.1.2,3.1.5c1,.3,1.9.8,2.6,1.4.8.6,1.4,1.4,2,2.2.5.9.9,1.9,1.1,3ZM883.7,458.8c-1.5,0-2.8-.4-3.9-1.1-1.1-.7-2-1.7-2.6-3-.6-1.3-.9-2.7-.9-4.4s.3-3.2.9-4.5c.6-1.3,1.5-2.3,2.6-3,1.1-.7,2.4-1.1,3.9-1.1s2.8.4,3.9,1.1c1.1.7,2,1.7,2.6,3,.6,1.3.9,2.8.9,4.5s-.3,3.2-.9,4.4c-.6,1.3-1.5,2.2-2.6,3-1.1.7-2.4,1.1-3.9,1.1ZM883.7,456.6c1.1,0,2-.3,2.8-.9.7-.6,1.3-1.3,1.6-2.3.3-.9.5-2,.5-3s-.2-2.1-.5-3.1c-.3-.9-.9-1.7-1.6-2.3-.7-.6-1.6-.9-2.8-.9s-2,.3-2.8.9c-.7.6-1.3,1.3-1.6,2.3-.3.9-.5,2-.5,3.1s.2,2.1.5,3c.3.9.9,1.7,1.6,2.3.7.6,1.6.9,2.8.9ZM897.5,436.7v21.8h-2.5v-21.8h2.5ZM904.6,436.7v21.8h-2.5v-21.8h2.5ZM916.1,458.8c-1.6,0-2.9-.3-4.1-1-1.1-.7-2-1.7-2.6-2.9-.6-1.3-.9-2.7-.9-4.4s.3-3.2.9-4.4c.6-1.3,1.5-2.3,2.6-3,1.1-.7,2.4-1.1,3.9-1.1s1.7.1,2.5.4c.8.3,1.6.7,2.3,1.4.7.6,1.2,1.5,1.6,2.5.4,1,.6,2.3.6,3.9v1.1h-12.6v-2.2h10.1c0-.9-.2-1.7-.6-2.5-.4-.7-.9-1.3-1.6-1.7-.7-.4-1.5-.6-2.4-.6s-1.9.2-2.6.7c-.7.5-1.3,1.1-1.7,1.9-.4.8-.6,1.6-.6,2.5v1.4c0,1.2.2,2.3.6,3.1.4.9,1,1.5,1.8,2,.8.4,1.7.7,2.7.7s1.3,0,1.8-.3c.5-.2,1-.5,1.4-.9.4-.4.7-.9.9-1.4l2.4.7c-.3.8-.7,1.5-1.3,2.2-.6.6-1.3,1.1-2.2,1.4-.9.3-1.9.5-3,.5ZM933.3,458.8c-1.5,0-2.9-.4-4-1.1-1.1-.7-2-1.7-2.6-3-.6-1.3-.9-2.7-.9-4.4s.3-3.1.9-4.4c.6-1.3,1.5-2.3,2.6-3,1.1-.7,2.4-1.1,3.9-1.1s2.2.2,3.1.6c.9.4,1.7,1,2.3,1.8.6.8,1,1.7,1.1,2.7h-2.5c-.2-.7-.6-1.4-1.3-2-.7-.6-1.5-.9-2.6-.9s-1.8.3-2.6.8c-.7.5-1.3,1.2-1.7,2.1-.4.9-.6,2-.6,3.2s.2,2.4.6,3.3c.4.9,1,1.7,1.7,2.2.7.5,1.6.8,2.6.8s1.2-.1,1.8-.3c.5-.2,1-.6,1.4-1,.4-.4.6-.9.8-1.5h2.5c-.1,1-.5,1.8-1.1,2.6-.6.8-1.3,1.4-2.2,1.8-.9.4-2,.7-3.2.7ZM950.5,442.1v2.1h-8.5v-2.1h8.5ZM944.5,438.2h2.5v15.6c0,.7.1,1.2.3,1.6.2.3.5.6.8.7.3.1.7.2,1.1.2s.5,0,.7,0c.2,0,.3,0,.4,0l.5,2.3c-.2,0-.4.1-.7.2-.3,0-.7.1-1.2.1-.7,0-1.4-.2-2.1-.5-.7-.3-1.2-.8-1.7-1.4-.4-.6-.7-1.4-.7-2.4v-16.3ZM960.8,458.8c-1.5,0-2.8-.4-3.9-1.1-1.1-.7-2-1.7-2.6-3-.6-1.3-.9-2.7-.9-4.4s.3-3.2.9-4.5c.6-1.3,1.5-2.3,2.6-3,1.1-.7,2.4-1.1,3.9-1.1s2.8.4,3.9,1.1c1.1.7,2,1.7,2.6,3,.6,1.3.9,2.8.9,4.5s-.3,3.2-.9,4.4c-.6,1.3-1.5,2.2-2.6,3-1.1.7-2.4,1.1-3.9,1.1ZM960.8,456.6c1.1,0,2-.3,2.8-.9.7-.6,1.3-1.3,1.6-2.3.3-.9.5-2,.5-3s-.2-2.1-.5-3.1c-.3-.9-.9-1.7-1.6-2.3-.7-.6-1.6-.9-2.8-.9s-2,.3-2.8.9c-.7.6-1.3,1.3-1.6,2.3-.3.9-.5,2-.5,3.1s.2,2.1.5,3c.3.9.9,1.7,1.6,2.3.7.6,1.6.9,2.8.9ZM972,458.5v-16.4h2.4v2.5h.2c.3-.8.8-1.5,1.6-2s1.7-.8,2.6-.8.4,0,.7,0c.3,0,.5,0,.6,0v2.6c0,0-.3,0-.6,0-.3,0-.6,0-.9,0-.8,0-1.5.2-2.1.5-.6.3-1.1.8-1.5,1.4-.4.6-.5,1.2-.5,2v10.4h-2.5Z" class="st5"/><g id="g55" class="st11"><path id="path54" d="M662,372c0-5.5,4.5-10,10-10h70v164h-69c-6.1,0-11-4.9-11-11v-143Z" class="st26"/><path id="path55" d="M742,358h254c5.5,0,10,4.5,10,10v148c0,5.5-4.5,10-10,10h-254v-168Z" class="st18"/></g><path id="path56" d="M693.3,446.9v12c0,.8.6,1.5,1.5,1.5h22.8c.8,0,1.5-.6,1.5-1.5v-12" class="st3"/><path id="path57" d="M700.7,455.1c1.9,0,3.4-1.5,3.4-3.4s-1.5-3.5-3.4-3.5-3.5,1.5-3.5,3.5,1.5,3.4,3.5,3.4Z" class="st3"/><path id="path58" d="M711.6,455.1c1.9,0,3.5-1.5,3.5-3.4s-1.5-3.5-3.5-3.5-3.4,1.5-3.4,3.5,1.5,3.4,3.4,3.4Z" class="st3"/><path id="path59" d="M700.5,444.4c1.9,0,3.5-1.5,3.5-3.5s-1.5-3.4-3.5-3.4-3.5,1.5-3.5,3.4,1.5,3.5,3.5,3.5Z" class="st3"/><path id="path60" d="M702.9,429.2l2.7,2.7h0c-.4.6-.8.9-1,1.2-.1.1-.3.3-.3.4h-.2c-.4-.3-1-.6-1.6-.8-.9-.3-1.7-.3-2.5-.3s-2,.3-2.9.8h-.1c-.6-.6-1.1-1.1-1.7-1.6s-.5-.3-.6-.6h0c0-.1,4.9-5,4.9-5h.2c1,1.1,2.1,2.1,3.2,3.1Z" class="st1"/><path id="path61" d="M689.2,444.4c-1.2-1.1-2.4-2.2-3.5-3.3h0c.3-.4.8-.8,1-1.2,1.8-1.8,3.8-3.5,5.6-5.2h.1c.3.3.6.6.9.9-.8,1.6-.9,3.3-.3,5.1h0c-1.4,1.5-2.7,2.7-3.9,3.8Z" class="st1"/><path id="path62" d="M687.2,443.3l-3.5,3.5" class="st2"/><path id="path63" d="M682.5,445.6l2.2,2.2" class="st2"/><path id="path64" d="M702.2,420.2l1.5-1.4c.6-.5,1.3-.5,1.9,0l7.5,7.2c.6.6.6,1.5,0,2.1l-1.5,1.4c-.6.5-1.3.5-1.9,0l-7.5-7.2c-.6-.6-.6-1.5,0-2.1Z" class="st3"/><rect id="rect64" width="405" height="403" x="45" y="520" class="st27"/><rect id="rect65" width="325" height="602" x="1140" y="95" class="st37" rx="9" ry="9"/><rect id="rect66" width="477" height="188" x="608" y="731" class="st39" rx="8" ry="8"/><rect id="rect67" width="405" height="401" x="45" y="91" class="st32" rx="8" ry="8"/><rect id="rect68" width="340.6" height="112.6" x="663.7" y="96.7" class="st4" rx="6.3" ry="6.3"/><path id="path68" d="M77,819c0-5.5,4.5-10,10-10h198.7c5.5,0,10,4.5,10,10v62c0,5.5-4.5,10-10,10H87c-5.5,0-10-4.5-10-10v-62Z" class="st24"/><g id="g71" class="st40" clip-path="url(#clippath)"><path id="path69" d="M227.9,845.8c0,.6,0,1.1.2,1.5.1.4.3.8.5,1.2,0,.1.1.3.1.4,0,.2-.1.3-.3.5l-1,.7c-.1,0-.3.1-.4.1s-.3,0-.5-.2c-.2-.2-.4-.5-.6-.8-.2-.3-.3-.6-.5-1-1.3,1.5-2.9,2.3-4.9,2.3s-2.5-.4-3.3-1.2c-.8-.8-1.2-1.9-1.2-3.2s.5-2.6,1.5-3.4c1-.9,2.4-1.3,4.1-1.3s1.1,0,1.8.1c.6,0,1.2.2,1.9.4v-1.2c0-1.3-.3-2.1-.8-2.6-.5-.5-1.4-.8-2.7-.8s-1.2,0-1.8.2c-.6.1-1.2.3-1.8.6-.3.1-.5.2-.6.2-.1,0-.2,0-.3,0-.2,0-.3-.2-.3-.5v-.8c0-.3,0-.5.1-.6,0-.1.2-.2.5-.3.6-.3,1.3-.5,2.1-.7.8-.2,1.7-.3,2.6-.3,2,0,3.4.4,4.3,1.3.9.9,1.4,2.3,1.4,4.1v5.4h0ZM221.2,848.3c.5,0,1.1,0,1.7-.3.6-.2,1.1-.6,1.6-1.1.3-.3.5-.7.6-1.1.1-.4.2-.9.2-1.4v-.7c-.5-.1-1-.2-1.5-.3-.5,0-1,0-1.6,0-1.1,0-1.9.2-2.5.7-.5.4-.8,1.1-.8,1.9s.2,1.4.6,1.8c.4.4,1,.6,1.7.6ZM234.5,850.1c-.3,0-.5,0-.6-.2-.1-.1-.2-.3-.3-.6l-3.9-12.8c0-.3-.1-.5-.1-.7,0-.3.1-.4.4-.4h1.6c.3,0,.5,0,.6.2.1,0,.2.3.3.6l2.8,11,2.6-11c0-.3.2-.5.3-.6.1-.1.4-.2.7-.2h1.3c.3,0,.5,0,.7.2.1,0,.2.3.3.6l2.6,11.1,2.9-11.1c0-.3.2-.5.3-.6.1-.1.3-.2.6-.2h1.5c.3,0,.4.1.4.4s0,.2,0,.3c0,0,0,.2-.1.4l-4,12.8c0,.3-.2.5-.3.6-.1,0-.3.2-.6.2h-1.4c-.3,0-.5,0-.7-.2-.1-.1-.2-.3-.3-.7l-2.6-10.7-2.6,10.7c0,.3-.2.5-.3.7-.1.1-.4.2-.7.2h-1.4ZM255.8,850.6c-.9,0-1.7,0-2.6-.3-.8-.2-1.5-.4-1.9-.7-.3-.1-.4-.3-.5-.5s-.1-.3-.1-.5v-.8c0-.3.1-.5.4-.5s.2,0,.3,0c0,0,.2,0,.4.2.6.2,1.2.4,1.8.6.7.1,1.3.2,2,.2,1,0,1.9-.2,2.4-.5.6-.4.9-.9.9-1.6s-.1-.8-.4-1.2c-.3-.3-.9-.6-1.7-.9l-2.4-.7c-1.2-.4-2.1-.9-2.7-1.7-.5-.7-.8-1.5-.8-2.4s.1-1.3.4-1.8c.3-.5.7-1,1.2-1.4.5-.4,1.1-.7,1.7-.9.7-.2,1.4-.3,2.1-.3s.7,0,1.1,0c.4,0,.7.1,1.1.2.3,0,.6.2.9.3.3,0,.5.2.7.3.2.1.4.3.5.4.1.1.1.3.1.5v.8c0,.3-.1.5-.4.5s-.3,0-.6-.2c-.9-.4-2-.6-3.2-.6s-1.7.1-2.2.5c-.5.3-.8.8-.8,1.5s.2.9.5,1.2c.3.3.9.6,1.8.9l2.4.7c1.2.4,2.1.9,2.6,1.6.5.7.8,1.5.8,2.3s-.1,1.4-.4,1.9c-.3.6-.7,1.1-1.2,1.5-.5.4-1.1.7-1.8.9-.7.2-1.5.3-2.4.3Z" class="st25"/><path id="path70" d="M258.9,858.6c-5.5,4-13.4,6.2-20.2,6.2s-18.1-3.5-24.6-9.4c-.5-.5,0-1.1.6-.7,7,4.1,15.7,6.5,24.7,6.5s12.7-1.3,18.8-3.8c.9-.4,1.7.6.8,1.3Z" class="st6"/><path id="path71" d="M261.2,856c-.7-.9-4.6-.4-6.4-.2-.5,0-.6-.4-.1-.7,3.1-2.2,8.2-1.6,8.8-.8.6.7-.2,5.9-3.1,8.3-.4.4-.9.2-.7-.3.7-1.6,2.1-5.3,1.4-6.2Z" class="st6"/></g><g id="g75" class="st33" clip-path="url(#clippath-1)"><path id="path72" d="M165.7,832.6h16.6v16.6h-16.6v-16.6Z" class="st25"/><path id="path73" d="M183.9,832.6h16.6v16.6h-16.6v-16.6Z" class="st5"/><path id="path74" d="M165.7,850.8h16.6v16.6h-16.6v-16.6Z" class="st35"/><path id="path75" d="M183.9,850.8h16.6v16.6h-16.6v-16.6Z" class="st38"/></g><g id="g79" class="st34" clip-path="url(#clippath-2)"><path id="path76" d="M136.6,842.2h1.4s3.8-3.8,3.8-3.8l.2-1.6c-3-2.7-6.9-4.3-11.3-4.3-7.8,0-14.4,5.3-16.4,12.5.4-.3,1.3,0,1.3,0l7.5-1.2s.4-.6.6-.6c1.8-2,4.3-3.1,7-3.1s4.3.8,5.9,2.1h0Z" class="st35"/><path id="path77" d="M147.1,845.1c-.9-3.2-2.7-6.1-5.1-8.3l-5.3,5.3c2.1,1.7,3.5,4.4,3.5,7.3v.9c2.6,0,4.7,2.1,4.7,4.7s-2.1,4.7-4.7,4.7h-9.4l-.9.9v5.7l.9.9h9.4c6.8,0,12.2-5.5,12.2-12.2,0-4.2-2.1-7.9-5.3-10.1h0Z" class="st25"/><path id="path78" d="M121.2,867.4h9.4v-7.5h-9.4c-.7,0-1.3-.1-1.9-.4l-1.4.4-3.8,3.8-.3,1.3c2.1,1.6,4.7,2.5,7.4,2.5Z" class="st38"/><path id="path79" d="M121.2,842.9c-6.8,0-12.2,5.5-12.2,12.2,0,4,1.9,7.5,4.9,9.8l5.5-5.5c-1.7-.8-2.8-2.4-2.8-4.3s2.1-4.7,4.7-4.7,3.6,1.2,4.3,2.8l5.5-5.5c-2.2-2.9-5.8-4.9-9.8-4.9Z" class="st5"/></g><path id="path80" d="M77,607c0-5.5,4.5-10,10-10h207c5.5,0,10,4.5,10,10v62c0,5.5-4.5,10-10,10H87c-5.5,0-10-4.5-10-10v-62Z" class="st23"/><path id="path81" d="M1173,268c0-5.5,4.5-10,10-10h239c5.5,0,10,4.5,10,10v92c0,5.5-4.5,10-10,10h-239c-5.5,0-10-4.5-10-10v-92Z" class="st21"/><path id="path82" d="M1173,409c0-5.5,4.5-10,10-10h239c5.5,0,10,4.5,10,10v92c0,5.5-4.5,10-10,10h-239c-5.5,0-10-4.5-10-10v-92Z" class="st22"/><path id="path83" d="M1173,550c0-5.5,4.5-10,10-10h239c5.5,0,10,4.5,10,10v92c0,5.5-4.5,10-10,10h-239c-5.5,0-10-4.5-10-10v-92Z" class="st20"/><path id="path84" d="M644,817c0-5.5,4.5-10,10-10h242c5.5,0,10,4.5,10,10v62c0,5.5-4.5,10-10,10h-242c-5.5,0-10-4.5-10-10v-62Z" class="st19"/><path id="path85" d="M924,817c0-5.5,4.5-10,10-10h107c5.5,0,10,4.5,10,10v62c0,5.5-4.5,10-10,10h-107c-5.5,0-10-4.5-10-10v-62Z" class="st15"/><path id="path86" d="M77,282c0-5.5,4.5-10,10-10h164c5.5,0,10,4.5,10,10v62c0,5.5-4.5,10-10,10H87c-5.5,0-10-4.5-10-10v-62Z" class="st17"/><path id="path87" d="M77,184c0-5.5,4.5-10,10-10h260c5.5,0,10,4.5,10,10v62c0,5.5-4.5,10-10,10H87c-5.5,0-10-4.5-10-10v-62Z" class="st16"/><path id="path88" d="M77,713c0-5.5,4.5-10,10-10h167c5.5,0,10,4.5,10,10v62c0,5.5-4.5,10-10,10H87c-5.5,0-10-4.5-10-10v-62Z" class="st14"/><path id="path89" d="M77,388c0-5.5,4.5-10,10-10h177c5.5,0,10,4.5,10,10v62c0,5.5-4.5,10-10,10H87c-5.5,0-10-4.5-10-10v-62Z" class="st13"/><path id="path90" d="M640.1,425.1c.6-.6.6-1.5,0-2.1l-9.5-9.5c-.6-.6-1.5-.6-2.1,0-.6.6-.6,1.5,0,2.1l8.5,8.5-8.5,8.5c-.6.6-.6,1.5,0,2.1.6.6,1.5.6,2.1,0l9.5-9.5ZM328,646.5h160v-3h-160v3ZM521.5,613v-157h-3v157h3ZM552,425.5h87v-3h-87v3ZM521.5,456c0-16.8,13.7-30.5,30.5-30.5v-3c-18.5,0-33.5,15-33.5,33.5h3ZM488,646.5c18.5,0,33.5-15,33.5-33.5h-3c0,16.8-13.7,30.5-30.5,30.5v3Z" class="st26"/><path id="path91" d="M637.1,150.1c.6-.6.6-1.5,0-2.1l-9.5-9.5c-.6-.6-1.5-.6-2.1,0-.6.6-.6,1.5,0,2.1l8.5,8.5-8.5,8.5c-.6.6-.6,1.5,0,2.1.6.6,1.5.6,2.1,0l9.5-9.5ZM450,273.5h83v-3h-83v3ZM566.5,240v-59h-3v59h3ZM597,150.5h39v-3h-39v3ZM566.5,181c0-16.8,13.7-30.5,30.5-30.5v-3c-18.5,0-33.5,15-33.5,33.5h3ZM533,273.5c18.5,0,33.5-15,33.5-33.5h-3c0,16.8-13.7,30.5-30.5,30.5v3Z" class="st26"/><path id="path92" d="M640.1,392.9c.6.6.6,1.5,0,2.1l-9.5,9.5c-.6.6-1.5.6-2.1,0-.6-.6-.6-1.5,0-2.1l8.5-8.5-8.5-8.5c-.6-.6-.6-1.5,0-2.1.6-.6,1.5-.6,2.1,0l9.5,9.5ZM450,270.5h84.8v3h-84.8v-3ZM568.3,304v58h-3v-58h3ZM598.8,392.5h40.2v3h-40.2v-3ZM568.3,362c0,16.8,13.7,30.5,30.5,30.5v3c-18.5,0-33.5-15-33.5-33.5h3ZM534.8,270.5c18.5,0,33.5,15,33.5,33.5h-3c0-16.8-13.7-30.5-30.5-30.5v-3Z" class="st26"/><path id="path93" d="M640.1,457.1c.6-.6.6-1.5,0-2.1l-9.5-9.5c-.6-.6-1.5-.6-2.1,0-.6.6-.6,1.5,0,2.1l8.5,8.5-8.5,8.5c-.6.6-.6,1.5,0,2.1.6.6,1.5.6,2.1,0l9.5-9.5ZM264,750.5h241.9v-3h-241.9v3ZM539.4,717v-229h-3v229h3ZM569.9,457.5h69.1v-3h-69.1v3ZM539.4,488c0-16.8,13.7-30.5,30.5-30.5v-3c-18.5,0-33.5,15-33.5,33.5h3ZM505.9,750.5c18.5,0,33.5-15,33.5-33.5h-3c0,16.8-13.7,30.5-30.5,30.5v3Z" class="st26"/><path id="path94" d="M640.1,491.1c.6-.6.6-1.5,0-2.1l-9.5-9.5c-.6-.6-1.5-.6-2.1,0-.6.6-.6,1.5,0,2.1l8.5,8.5-8.5,8.5c-.6.6-.6,1.5,0,2.1.6.6,1.5.6,2.1,0l9.5-9.5ZM296,855.5h239.1v-3h-239.1v3ZM568.6,822v-300h-3v300h3ZM599.1,491.5h39.9v-3h-39.9v3ZM568.6,522c0-16.8,13.7-30.5,30.5-30.5v-3c-18.5,0-33.5,15-33.5,33.5h3ZM535.1,855.5c18.5,0,33.5-15,33.5-33.5h-3c0,16.8-13.7,30.5-30.5,30.5v3Z" class="st26"/><path id="path95" d="M848.1,570.9c-.6-.6-1.5-.6-2.1,0l-9.5,9.5c-.6.6-.6,1.5,0,2.1.6.6,1.5.6,2.1,0l8.5-8.5,8.5,8.5c.6.6,1.5.6,2.1,0,.6-.6.6-1.5,0-2.1l-9.5-9.5ZM845.5,572v159h3v-159h-3Z" class="st26"/><path id="path96" d="M1040.9,421.9c-.6.6-.6,1.5,0,2.1l9.6,9.5c.6.6,1.5.6,2.1,0,.6-.6.6-1.5,0-2.1l-8.5-8.5,8.5-8.5c.6-.6.6-1.5,0-2.1-.6-.6-1.5-.6-2.1,0l-9.6,9.5ZM1162.1,313.1c.6-.6.6-1.5,0-2.1l-9.6-9.5c-.6-.6-1.5-.6-2.1,0-.6.6-.6,1.5,0,2.1l8.5,8.5-8.5,8.5c-.6.6-.6,1.5,0,2.1.6.6,1.5.6,2.1,0l9.6-9.5ZM1042,424.5h30.6v-3h-30.6v3ZM1106.1,391v-47h-3v47h3ZM1136.6,313.5h24.4v-3h-24.4v3ZM1106.1,344c0-16.8,13.7-30.5,30.5-30.5v-3c-18.5,0-33.5,15-33.5,33.5h3ZM1072.6,424.5c18.5,0,33.5-15,33.5-33.5h-3c0,16.8-13.7,30.5-30.5,30.5v3Z" class="st36"/><path id="path97" d="M1162.1,594.9c.6.6.6,1.5,0,2.1l-9.6,9.5c-.6.6-1.5.6-2.1,0-.6-.6-.6-1.5,0-2.1l8.5-8.5-8.5-8.5c-.6-.6-.6-1.5,0-2.1.6-.6,1.5-.6,2.1,0l9.6,9.5ZM1040.9,486.1c-.6-.6-.6-1.5,0-2.1l9.6-9.5c.6-.6,1.5-.6,2.1,0,.6.6.6,1.5,0,2.1l-8.5,8.5,8.5,8.5c.6.6.6,1.5,0,2.1-.6.6-1.5.6-2.1,0l-9.6-9.5ZM1161,597.5h-30.6v-3h30.6v3ZM1096.9,564v-47h3v47h-3ZM1066.4,486.5h-24.4v-3h24.4v3ZM1096.9,517c0-16.8-13.7-30.5-30.5-30.5v-3c18.5,0,33.5,15,33.5,33.5h-3ZM1130.4,597.5c-18.5,0-33.5-15-33.5-33.5h3c0,16.8,13.7,30.5,30.5,30.5v3Z" class="st36"/><path id="path98" d="M1040.9,451.9c-.6.6-.6,1.5,0,2.1l9.6,9.5c.6.6,1.5.6,2.1,0,.6-.6.6-1.5,0-2.1l-8.5-8.5,8.5-8.5c.6-.6.6-1.5,0-2.1-.6-.6-1.5-.6-2.1,0l-9.6,9.5ZM1162.1,454.1c.6-.6.6-1.5,0-2.1l-9.6-9.5c-.6-.6-1.5-.6-2.1,0-.6.6-.6,1.5,0,2.1l8.5,8.5-8.5,8.5c-.6.6-.6,1.5,0,2.1.6.6,1.5.6,2.1,0l9.6-9.5ZM1042,454.5h119v-3h-119v3Z" class="st36"/><text id="text98" class="st7" transform="translate(107 229.1)"><tspan id="tspan98" x="0" y="0">OTel Auto. Inst.</tspan></text><text id="text99" class="st7" transform="translate(105.5 326.3)"><tspan id="tspan99" x="0" y="0">OTel API</tspan></text><text id="text100" class="st7" transform="translate(105.5 430.3)"><tspan id="tspan100" x="0" y="0">OTel SDK</tspan></text><text id="text101" class="st30" transform="translate(77.3 144.4)"><tspan id="tspan101" x="0" y="0">Microservices</tspan></text><text id="text102" class="st9" transform="translate(76.9 573.5)"><tspan id="tspan102" x="0" y="0">Shared Infra</tspan></text><text id="text103" class="st7" transform="translate(110.5 648.8)"><tspan id="tspan103" x="0" y="0">Kubernetes</tspan></text><text id="text104" class="st7" transform="translate(109.3 756.2)"><tspan id="tspan104" x="0" y="0">L7 Proxy</tspan></text><text id="text105" class="st31" transform="translate(704.3 163.8)"><tspan id="tspan105" x="0" y="0">3rd party service</tspan></text><text id="text107" class="st29" transform="translate(1173 154.4)"><tspan id="tspan106" x="0" y="0">Observability</tspan><tspan id="tspan107" x="0" y="36">Frontends &amp; APIs</tspan></text><text id="text109" class="st8" transform="translate(1205.5 448.4)"><tspan id="tspan108" x="0" y="0">Trace</tspan><tspan id="tspan109" x="0" y="36">Databases</tspan></text><text id="text111" class="st8" transform="translate(1203.8 589.7)"><tspan id="tspan110" x="0" y="0">Column</tspan><tspan id="tspan111" x="0" y="36">Stores</tspan></text><text id="text112" class="st28" transform="translate(641.4 779.8)"><tspan id="tspan112" x="0" y="0">Client Instrumentation</tspan></text><text id="text113" class="st8" transform="translate(678.3 857.1)"><tspan id="tspan113" x="0" y="0">Managed DBs</tspan></text><text id="text114" class="st8" transform="translate(955.3 856.7)"><tspan id="tspan114" x="0" y="0">APIs</tspan></text><text id="text115" class="st8" transform="translate(772.9 452.7)"><tspan id="tspan115" x="0" y="0">OTel Collector</tspan></text><text id="text117" class="st8" transform="translate(1206 306.3)"><tspan id="tspan116" x="0" y="0">Time Series</tspan><tspan id="tspan117" x="0" y="36">Databases</tspan></text></svg>