<svg xmlns="http://www.w3.org/2000/svg" xmlns:xlink="http://www.w3.org/1999/xlink" id="Layer_1" x="0" y="0" version="1.1" viewBox="0 0 32 32" xml:space="preserve" style="enable-background:new 0 0 32 32"><style type="text/css">.st0,.st1,.st2{fill:none;stroke:#002e42;stroke-width:2;stroke-linecap:round}.st1,.st2{fill:#fff;stroke:#fff;stroke-width:3.7399}.st2{stroke:#002e42;stroke-width:1.8007}</style><path d="M16.5,29.3c-3.3,0-5.7-1.2-7.4-2.9c-1.7-1.8-2.6-4.3-2.6-7.2c-0.2-5.7,3-12.4,9.9-16.4c0,0,0,0,0,0	c0,0,0,0,0.1,0c0.1,0.1,0.2,0.2,0.2,0.4c0.1,2.5,1.3,6.1,5.1,9.2c3,2.5,4,6.7,3.1,10.4C23.8,26.4,21.1,29.3,16.5,29.3z" class="st0"/><path d="M16.1,29.3c-3.1,0-5.7-3-6.3-8C9.2,16.3,10.6,9.8,15.2,4c0.1-0.2,0.3-0.3,0.3-0.4c0,0.2,0.1,0.4,0.1,0.7	c0,3.4,0.9,8.4,4.6,11.7c2.1,1.8,2.4,5.1,1.4,8.1C20.6,27.1,18.4,29.3,16.1,29.3z M15.4,3.3C15.4,3.3,15.4,3.3,15.4,3.3	C15.4,3.3,15.4,3.3,15.4,3.3z" class="st0"/><path d="M10.6,12.7c0,5.5,3.6,15,10.6,15" class="st0"/><path d="M20.1,10.9c-0.6,0.6-1.8,2.4-1.8,4.8c0,2.9,0.7,13.2-5.5,13.2" class="st0"/><g><path d="M25.1,24c-0.3-0.5,0-1.2,0.5-1.5c0.4-0.2,0.5-0.7,0.1-0.9c-0.5-0.2-1.1-0.3-1.8,0.1c-0.8,0.5-1.1,1.2-1.2,1.7 c-0.1,0.4-0.3,0.9-0.6,1.1L18,26.7c-0.5,0.3-0.7,1-0.4,1.5c0.3,0.5,1,0.7,1.5,0.4l3.6-2.1c0.5-0.3,1.3-0.2,1.9,0 c0.5,0.1,1.2,0.1,1.8-0.2c0.7-0.4,1-1,1.1-1.5c0.1-0.5-0.4-0.6-0.9-0.4C26.1,24.6,25.3,24.4,25.1,24z" class="st1"/><path d="M25.1,24c-0.3-0.5,0-1.2,0.5-1.5c0.4-0.2,0.5-0.7,0.1-0.9c-0.5-0.2-1.1-0.3-1.8,0.1c-0.8,0.5-1.1,1.2-1.2,1.7 c-0.1,0.4-0.3,0.9-0.6,1.1L18,26.7c-0.5,0.3-0.7,1-0.4,1.5c0.3,0.5,1,0.7,1.5,0.4l3.6-2.1c0.5-0.3,1.3-0.2,1.9,0 c0.5,0.1,1.2,0.1,1.8-0.2c0.7-0.4,1-1,1.1-1.5c0.1-0.5-0.4-0.6-0.9-0.4C26.1,24.6,25.3,24.4,25.1,24z" class="st2"/></g></svg>