<svg xmlns="http://www.w3.org/2000/svg" xmlns:xlink="http://www.w3.org/1999/xlink" id="Layer_1" x="0" y="0" version="1.1" viewBox="0 0 32 32" xml:space="preserve" style="enable-background:new 0 0 32 32"><style type="text/css">.st0,.st1,.st2{stroke-linecap:round}.st0{fill:none;stroke:#002e42;stroke-width:2;stroke-linejoin:round}.st1,.st2{fill:#fff;stroke:#fff;stroke-width:4.0417}.st2{stroke:#002e42;stroke-width:1.7}</style><path d="M10.1,14.9c-0.8,0.3-2.5,0.4-2.5,1.9c0,1.8,9.5,3.2,12.7-0.6" class="st0"/><path d="M10.7,22.9c0.6,0.6-3.2,1.3-3.2,3.2c0,1.8,9.5,3.2,12.7-0.6" class="st0"/><path d="M10.3,18.5c-1.3,0-1.3,0.4-1.3,2c0,3,6.6,2.8,8.9,1.4" class="st0"/><path d="M22.8,17.9c1.1-0.4,3.2-0.9,3.2,0.6c0,1.9-1.9,3.2-4.4,3.8" class="st0"/><path d="M14.1,12.4c-2.3-0.6-6.1-2.5-2.5-5.1c3.6-2.5,2.3-4.4,1.3-5.1" class="st0"/><path d="M17.7,13.6c0.6-0.6,1.5-2.3,0-3.8C15.8,7.9,15.8,6,19,4.7" class="st0"/><g><path d="M24.4,24.2c-0.3-0.5,0-1.3,0.5-1.6c0.4-0.2,0.5-0.8,0.1-1c-0.5-0.3-1.2-0.4-2,0.1c-0.9,0.5-1.2,1.3-1.3,1.9 c-0.1,0.5-0.3,1-0.7,1.2l-4.3,2.4c-0.6,0.3-0.8,1.1-0.4,1.7c0.3,0.6,1.1,0.7,1.6,0.4l3.8-2.3c0.6-0.3,1.4-0.2,2,0 c0.6,0.1,1.3,0.1,2-0.2c0.8-0.4,1.1-1.1,1.2-1.6c0.1-0.5-0.5-0.7-0.9-0.5C25.5,24.9,24.7,24.7,24.4,24.2z" class="st1"/><path d="M24.4,24.2c-0.3-0.5,0-1.3,0.5-1.6c0.4-0.2,0.5-0.8,0.1-1c-0.5-0.3-1.2-0.4-2,0.1c-0.9,0.5-1.2,1.3-1.3,1.9 c-0.1,0.5-0.3,1-0.7,1.2l-4.3,2.4c-0.6,0.3-0.8,1.1-0.4,1.7c0.3,0.6,1.1,0.7,1.6,0.4l3.8-2.3c0.6-0.3,1.4-0.2,2,0 c0.6,0.1,1.3,0.1,2-0.2c0.8-0.4,1.1-1.1,1.2-1.6c0.1-0.5-0.5-0.7-0.9-0.5C25.5,24.9,24.7,24.7,24.4,24.2z" class="st2"/></g></svg>