<svg xmlns="http://www.w3.org/2000/svg" xmlns:xlink="http://www.w3.org/1999/xlink" id="Layer_1" x="0" y="0" version="1.1" viewBox="0 0 32 32" xml:space="preserve" style="enable-background:new 0 0 32 32"><style type="text/css">.st0,.st1,.st2{fill:none;stroke:#002e42;stroke-width:2;stroke-linecap:round}.st0{stroke-linejoin:round}.st1,.st2{stroke-miterlimit:10}.st2{stroke-linejoin:round}</style><circle cx="17.9" cy="23.6" r="2.8" class="st0"/><path d="M7.8,25.3l-2.3,2.3" class="st1"/><path d="M4.1,26.8l2.1,2.1" class="st1"/><path d="M9.6,27.2L5.5,23l5.3-5.3l2.1,2.2c-1.5,1.7-1.6,3.4-1.1,5.2L9.6,27.2z" class="st2"/><path d="M15.6,18l-2.8-3l4.6-4.6l5.3,5.3l-2.1,2.1C19,16.8,17.1,17.1,15.6,18z" class="st2"/><path d="M26.5,14.7l-7.9-7.9c-0.4-0.4-0.4-1,0-1.4l1.7-1.7c0.4-0.4,1-0.4,1.4,0l7.9,7.9c0.4,0.4,0.4,1,0,1.4l-1.7,1.7	C27.5,15,26.9,15,26.5,14.7z" class="st2"/></svg>