<svg xmlns="http://www.w3.org/2000/svg" xmlns:xlink="http://www.w3.org/1999/xlink" style="enable-background:new 0 0 32 32" id="Layer_1" x="0" y="0" version="1.1" viewBox="0 0 32 32" xml:space="preserve"><style type="text/css">.st0{fill:none;stroke:#002e42;stroke-width:2;stroke-linecap:round;stroke-linejoin:round}.st1{fill:#002e42}.st2{stroke-dasharray:1.5332,3.0665}.st2,.st3,.st4,.st5{fill:none;stroke:#002e42;stroke-width:2;stroke-linecap:round;stroke-linejoin:round}.st3{stroke-dasharray:1.5333,3.0665}.st4{stroke-dasharray:1.6693,3.3386}.st5{stroke-dasharray:1.4515,2.9031}</style><path d="M9.1,13.4L9.1,13.4c-0.3,0-0.5-0.2-0.6-0.4c0,0,0-0.1-0.1-0.1c-0.1-0.2-0.1-0.5,0.1-0.7l0,0	c0.1-0.1,0.1-0.3,0-0.4l-0.9-0.9c-0.1-0.1-0.3-0.1-0.4,0l0,0c-0.2,0.2-0.5,0.2-0.7,0.1c0,0-0.1,0-0.1,0c-0.2-0.1-0.4-0.3-0.4-0.6	l0,0c0-0.1-0.1-0.3-0.3-0.3H4.6c-0.1,0-0.3,0.1-0.3,0.3l0,0c0,0.3-0.2,0.5-0.4,0.6c0,0-0.1,0-0.1,0c-0.2,0.1-0.5,0.1-0.7-0.1l0,0	c-0.1-0.1-0.3-0.1-0.4,0l-0.9,0.9c-0.1,0.1-0.1,0.3,0,0.4l0,0C2,12.3,2,12.6,1.9,12.8c0,0,0,0.1-0.1,0.1c-0.1,0.2-0.3,0.4-0.6,0.4	l0,0c-0.1,0-0.3,0.1-0.3,0.3v1.3c0,0.1,0.1,0.3,0.3,0.3l0,0c0.2,0,0.5,0.2,0.6,0.4c0,0.1,0,0.1,0.1,0.2C2,16,2,16.2,1.8,16.4l0,0	c-0.1,0.1-0.1,0.3,0,0.4l0.9,0.9c0.1,0.1,0.3,0.1,0.4,0l0,0c0.2-0.2,0.4-0.2,0.7-0.1c0.1,0,0.1,0,0.2,0.1c0.2,0.1,0.4,0.3,0.4,0.5	l0,0c0,0.1,0.1,0.3,0.3,0.3h1.3c0.1,0,0.3-0.1,0.3-0.3l0,0c0-0.2,0.2-0.5,0.4-0.5c0.1,0,0.1,0,0.2-0.1c0.2-0.1,0.5-0.1,0.7,0.1l0,0	c0.1,0.1,0.3,0.1,0.4,0l0.9-0.9c0.1-0.1,0.1-0.3,0-0.4l0,0c-0.2-0.2-0.2-0.4-0.1-0.7c0-0.1,0-0.1,0.1-0.2c0.1-0.2,0.3-0.4,0.6-0.4	l0,0c0.1,0,0.3-0.1,0.3-0.3v-1.3C9.4,13.5,9.3,13.4,9.1,13.4z" class="st0"/><path d="M6.2,14.3c0,0.5-0.4,1-1,1s-1-0.4-1-1s0.4-1,1-1S6.2,13.7,6.2,14.3z" class="st1"/><path d="M19.9,24.2L19.9,24.2c-0.3,0-0.5-0.2-0.6-0.4c0,0,0-0.1-0.1-0.1c-0.1-0.2-0.1-0.5,0.1-0.7l0,0	c0.1-0.1,0.1-0.3,0-0.4l-0.9-0.9c-0.1-0.1-0.3-0.1-0.4,0l0,0c-0.2,0.2-0.5,0.2-0.7,0.1c0,0-0.1,0-0.1,0c-0.2-0.1-0.4-0.3-0.4-0.6	l0,0c0-0.1-0.1-0.3-0.3-0.3h-1.3c-0.1,0-0.3,0.1-0.3,0.3l0,0c0,0.3-0.2,0.5-0.4,0.6c0,0-0.1,0-0.1,0c-0.2,0.1-0.5,0.1-0.7-0.1l0,0	c-0.1-0.1-0.3-0.1-0.4,0l-0.9,0.9c-0.1,0.1-0.1,0.3,0,0.4l0,0c0.2,0.2,0.2,0.5,0.1,0.7c0,0,0,0.1-0.1,0.1c-0.1,0.2-0.3,0.4-0.6,0.4	l0,0c-0.1,0-0.3,0.1-0.3,0.3v1.3c0,0.1,0.1,0.3,0.3,0.3l0,0c0.2,0,0.5,0.2,0.6,0.4c0,0.1,0,0.1,0.1,0.2c0.1,0.2,0.1,0.5-0.1,0.7l0,0	c-0.1,0.1-0.1,0.3,0,0.4l0.9,0.9c0.1,0.1,0.3,0.1,0.4,0l0,0c0.2-0.2,0.4-0.2,0.7-0.1c0.1,0,0.1,0,0.2,0.1c0.2,0.1,0.4,0.3,0.4,0.5	l0,0c0,0.1,0.1,0.3,0.3,0.3h1.3c0.1,0,0.3-0.1,0.3-0.3l0,0c0-0.2,0.2-0.5,0.4-0.5c0.1,0,0.1,0,0.2-0.1c0.2-0.1,0.5-0.1,0.7,0.1l0,0	c0.1,0.1,0.3,0.1,0.4,0l0.9-0.9c0.1-0.1,0.1-0.3,0-0.4l0,0c-0.2-0.2-0.2-0.4-0.1-0.7c0-0.1,0-0.1,0.1-0.2c0.1-0.2,0.3-0.4,0.6-0.4	l0,0c0.1,0,0.3-0.1,0.3-0.3v-1.3C20.2,24.3,20.1,24.2,19.9,24.2z" class="st0"/><path d="M17,25.1c0,0.5-0.4,1-1,1s-1-0.4-1-1s0.4-1,1-1S17,24.5,17,25.1z" class="st1"/><path d="M30.7,6.5L30.7,6.5c-0.3,0-0.5-0.2-0.6-0.4c0,0,0-0.1-0.1-0.1C30,5.7,30,5.5,30.2,5.3l0,0	c0.1-0.1,0.1-0.3,0-0.4L29.3,4c-0.1-0.1-0.3-0.1-0.4,0l0,0c-0.2,0.2-0.5,0.2-0.7,0.1c0,0-0.1,0-0.1,0c-0.2-0.1-0.4-0.3-0.4-0.6l0,0	c0-0.1-0.1-0.3-0.3-0.3h-1.3c-0.1,0-0.3,0.1-0.3,0.3l0,0c0,0.3-0.2,0.5-0.4,0.6c0,0-0.1,0-0.1,0c-0.2,0.1-0.5,0.1-0.7-0.1l0,0	c-0.1-0.1-0.3-0.1-0.4,0l-0.9,0.9c-0.1,0.1-0.1,0.3,0,0.4l0,0c0.2,0.2,0.2,0.5,0.1,0.7c0,0,0,0.1-0.1,0.1c-0.1,0.2-0.3,0.4-0.6,0.4	l0,0c-0.1,0-0.3,0.1-0.3,0.3v1.3c0,0.1,0.1,0.3,0.3,0.3l0,0c0.2,0,0.5,0.2,0.6,0.4c0,0.1,0,0.1,0.1,0.2c0.1,0.2,0.1,0.5-0.1,0.7l0,0	c-0.1,0.1-0.1,0.3,0,0.4l0.9,0.9c0.1,0.1,0.3,0.1,0.4,0l0,0c0.2-0.2,0.4-0.2,0.7-0.1c0.1,0,0.1,0,0.2,0.1c0.2,0.1,0.4,0.3,0.4,0.5	l0,0c0,0.1,0.1,0.3,0.3,0.3h1.3c0.1,0,0.3-0.1,0.3-0.3l0,0c0-0.2,0.2-0.5,0.4-0.5c0.1,0,0.1,0,0.2-0.1c0.2-0.1,0.5-0.1,0.7,0.1l0,0	c0.1,0.1,0.3,0.1,0.4,0l0.9-0.9c0.1-0.1,0.1-0.3,0-0.4l0,0C30,9.4,30,9.1,30.1,8.9c0-0.1,0-0.1,0.1-0.2c0.1-0.2,0.3-0.4,0.6-0.4l0,0	c0.1,0,0.3-0.1,0.3-0.3V6.8C31,6.6,30.9,6.5,30.7,6.5z" class="st0"/><path d="M27.8,7.4c0,0.5-0.4,1-1,1s-1-0.4-1-1s0.4-1,1-1S27.8,6.9,27.8,7.4z" class="st1"/><path d="M2.9,18.6l8.3,8.7" class="st2"/><path d="M9.8,12.1l8.3,8.7" class="st3"/><path d="M29.4,11.2L21,24.1" class="st4"/><path d="M21.6,7.4L16,15.8" class="st5"/></svg>