<svg xmlns="http://www.w3.org/2000/svg" xmlns:xlink="http://www.w3.org/1999/xlink" id="Layer_1" x="0" y="0" version="1.1" viewBox="0 0 32 32" xml:space="preserve" style="enable-background:new 0 0 32 32"><style type="text/css">.st0{fill:none;stroke:#002e42;stroke-width:2;stroke-linecap:round;stroke-linejoin:round}</style><path d="M9.4,3.9h13.2c3,0,5.5,2.5,5.5,5.5v1.1c0,3-2.5,5.5-5.5,5.5H9.4c-3,0-5.5-2.5-5.5-5.5V9.4	C3.9,6.4,6.4,3.9,9.4,3.9z" class="st0"/><path d="M9.4,16h13.2c3,0,5.5,2.5,5.5,5.5v1.1c0,3-2.5,5.5-5.5,5.5H9.4c-3,0-5.5-2.5-5.5-5.5v-1.1	C3.9,18.5,6.4,16,9.4,16z" class="st0"/><circle cx="10" cy="10" r="2.2" class="st0"/><circle cx="17.6" cy="10" r="2.2" class="st0"/><circle cx="10" cy="22" r="2.2" class="st0"/></svg>