<svg xmlns="http://www.w3.org/2000/svg" xmlns:xlink="http://www.w3.org/1999/xlink" id="Layer_1" x="0" y="0" version="1.1" viewBox="0 0 32 33" xml:space="preserve" style="enable-background:new 0 0 32 33"><style type="text/css">.st0{stroke-linecap:round}.st0,.st1,.st2{fill:none;stroke:#002e42;stroke-width:2}.st2{stroke-linecap:round;stroke-linejoin:round}</style><path d="M4,30.5c1.8-2.2,3.3-3.3,5.6-3.3c3.3,0,3.3,3.9,6.7,3.9c3.3,0,3.3-3.9,6.7-3.9c2.2,0,3.7,1.7,5,3.3" class="st0"/><path d="M9,27.1l-2.5-8c-0.2-0.5,0.1-1.1,0.6-1.2l9.4-3.4c0.2-0.1,0.5-0.1,0.7,0l8.8,3.4c0.5,0.2,0.7,0.7,0.6,1.2	l-2.5,8" class="st1"/><path d="M16.8,9.5v15.3" class="st2"/><path d="M12.4,9.3V3c0-0.6,0.4-1,1-1h6.9c0.6,0,1,0.4,1,1v5.7" class="st1"/><path d="M10.7,19.9l2.2-0.6" class="st0"/><path d="M23,19.9l-2.2-0.6" class="st0"/><path d="M7.9,17.1v-6.8c0-0.6,0.4-1,1-1h15.9c0.6,0,1,0.4,1,1v6.8" class="st1"/></svg>